<svg width="60" height="60" viewBox="0 0 60 60" fill="none" xmlns="http://www.w3.org/2000/svg">
<rect x="4.5" y="15.5" width="51" height="29" rx="2.5" stroke="#150E24" stroke-width="3"/>
<path d="M18.2789 36.4697L15.277 26.6878H15.2003C15.2116 26.9209 15.2287 27.2734 15.2514 27.7453C15.2799 28.2115 15.3055 28.709 15.3282 29.2378C15.3509 29.7665 15.3623 30.2441 15.3623 30.6705V36.4697H13V24.0015H16.5989L19.5496 33.536H19.6008L22.7307 24.0015H26.3295V36.4697H23.8649V30.5682C23.8649 30.1759 23.8706 29.7239 23.882 29.2122C23.899 28.7005 23.9189 28.2144 23.9417 27.7539C23.9644 27.2877 23.9815 26.938 23.9928 26.7049H23.9161L20.7009 36.4697H18.2789Z" fill="#150E24"/>
<path d="M36.6572 36.4697H29.4764V24.0015H36.6572V26.1676H32.1202V28.9052H36.3416V31.0713H32.1202V34.2865H36.6572V36.4697Z" fill="#150E24"/>
<path d="M43.2495 24.0015C44.8584 24.0015 46.0325 24.3483 46.7716 25.0419C47.5107 25.7298 47.8803 26.6793 47.8803 27.8903C47.8803 28.4361 47.7978 28.9592 47.6329 29.4595C47.4681 29.9541 47.198 30.3948 46.8228 30.7814C46.4532 31.168 45.9586 31.475 45.3389 31.7024C44.7191 31.9241 43.9545 32.035 43.0448 32.035H41.9105V36.4697H39.2668V24.0015H43.2495ZM43.113 26.1676H41.9105V29.8689H42.7804C43.275 29.8689 43.7043 29.8035 44.0682 29.6727C44.432 29.5419 44.7135 29.3373 44.9125 29.0587C45.1114 28.7801 45.2109 28.4219 45.2109 27.9841C45.2109 27.3701 45.0404 26.9153 44.6992 26.6196C44.3581 26.3183 43.8294 26.1676 43.113 26.1676Z" fill="#150E24"/>
</svg>
