<svg width="60" height="60" viewBox="0 0 60 60" fill="none" xmlns="http://www.w3.org/2000/svg">
<path d="M16.4939 11.48H13C10.2386 11.48 8 13.7186 8 16.48V48.6307C8 51.3921 10.2386 53.6307 13 53.6307H27.7474M35.0261 11.48H38.9061C41.6676 11.48 43.9061 13.7186 43.9061 16.48V31.7522" stroke="#47D4AA" stroke-width="3" stroke-linecap="round"/>
<path d="M24.3901 20.3467H38.276" stroke="#47D4AA" stroke-width="3" stroke-linecap="round"/>
<path d="M13.2651 20.2541L15.3834 22.1015L19.408 18.5913" stroke="#47D4AA" stroke-width="3" stroke-linecap="round" stroke-linejoin="round"/>
<path d="M13.2651 29.0299L15.3834 30.8774L19.408 27.3672" stroke="#47D4AA" stroke-width="3" stroke-linecap="round" stroke-linejoin="round"/>
<path d="M13.2651 37.8053L15.3834 39.6528L19.408 36.1426" stroke="#47D4AA" stroke-width="3" stroke-linecap="round" stroke-linejoin="round"/>
<path d="M13.2651 46.5812L15.3834 48.4287L19.408 44.9185" stroke="#47D4AA" stroke-width="3" stroke-linecap="round" stroke-linejoin="round"/>
<path d="M24.3892 29.1235H38.2758" stroke="#47D4AA" stroke-width="3" stroke-linecap="round"/>
<path d="M24.6733 37.8979H29.9387" stroke="#47D4AA" stroke-width="3" stroke-linecap="round"/>
<path d="M24.3892 46.6748H27.7451" stroke="#47D4AA" stroke-width="3" stroke-linecap="round"/>
<path fill-rule="evenodd" clip-rule="evenodd" d="M25.9522 3.67334C28.3113 3.67335 30.3021 5.33506 30.8657 7.57742H34.8303L34.8273 7.5751C35.5264 7.57516 36.0951 8.15618 36.0951 8.87595V10.176L36.0966 10.7714L36.0951 11.7598L36.0966 12.7823V14.0832C36.0964 14.8026 35.529 15.3828 34.8303 15.3833H17.072C16.373 15.3831 15.8043 14.8028 15.8042 14.0832V12.7823L15.8079 11.8992L15.8042 10.6984L15.8079 10.1783V8.87826C15.8079 8.15857 16.3759 7.5776 17.0749 7.57742H21.0387C21.6047 5.33507 23.5909 3.67345 25.9522 3.67334ZM25.95 6.27657C24.5493 6.2766 23.4123 7.44579 23.4123 8.88057C23.4123 9.60027 22.8442 10.1812 22.1452 10.1814H18.3397V12.7846H33.5603V10.1814H29.7555C29.0564 10.1814 28.4878 9.60037 28.4878 8.88057C28.4878 7.44335 27.3483 6.27659 25.95 6.27657Z" fill="#47D4AA"/>
<path d="M38.2347 40.0853C38.554 39.9443 38.8 39.6687 38.8708 39.3268L39.1833 37.8173C39.2795 37.353 39.6884 37.02 40.1626 37.02H42.5314C43.0055 37.02 43.4145 37.353 43.5106 37.8173L43.8232 39.327C43.894 39.6687 44.1399 39.9443 44.4592 40.0854C44.8999 40.28 45.3181 40.5146 45.7081 40.7844C45.9863 40.977 46.3366 41.0457 46.6582 40.9406L48.2423 40.4228C48.6863 40.2777 49.1717 40.4593 49.4113 40.8603L50.5655 42.7913C50.8163 43.211 50.727 43.7504 50.3543 44.0667L49.1721 45.0703C48.9007 45.3007 48.7779 45.6575 48.8115 46.0119C48.8533 46.4518 48.8533 46.8945 48.8115 47.3344C48.7779 47.6888 48.9007 48.0457 49.1721 48.276L50.3543 49.2796C50.727 49.5959 50.8163 50.1354 50.5655 50.555L49.4113 52.486C49.1717 52.887 48.6863 53.0686 48.2423 52.9235L46.6581 52.4057C46.3365 52.3006 45.9864 52.3693 45.7082 52.5618C45.3161 52.8331 44.8979 53.0673 44.4593 53.261C44.14 53.402 43.8939 53.6776 43.8232 54.0195L43.5106 55.529C43.4145 55.9933 43.0055 56.3263 42.5314 56.3263H40.1626C39.6884 56.3263 39.2795 55.9933 39.1833 55.529L38.8708 54.0195C38.8 53.6776 38.554 53.402 38.2347 53.261C37.7961 53.0673 37.3778 52.8331 36.9858 52.5618C36.7076 52.3693 36.3574 52.3006 36.0359 52.4057L34.4517 52.9235C34.0076 53.0686 33.5223 52.887 33.2826 52.486L32.1285 50.555C31.8777 50.1354 31.967 49.5959 32.3397 49.2796L33.5231 48.275C33.7938 48.0452 33.9168 47.6894 33.8836 47.3358C33.8423 46.8949 33.8423 46.4514 33.8836 46.0105C33.9168 45.6569 33.7938 45.3011 33.5231 45.0713L32.3397 44.0667C31.967 43.7504 31.8777 43.211 32.1285 42.7913L33.2826 40.8603C33.5223 40.4593 34.0076 40.2777 34.4517 40.4228L36.0359 40.9406C36.3574 41.0457 36.7076 40.9771 36.9858 40.7845C37.3778 40.5132 37.7961 40.279 38.2347 40.0853Z" stroke="#47D4AA" stroke-width="3" stroke-linecap="square"/>
<path d="M45.3444 46.6728C45.3444 47.6968 44.9233 48.679 44.1737 49.4031C43.4241 50.1272 42.4074 50.534 41.3473 50.534C40.2871 50.534 39.2705 50.1272 38.5208 49.4031C37.7712 48.679 37.3501 47.6968 37.3501 46.6728C37.3501 45.6487 37.7712 44.6666 38.5208 43.9425C39.2705 43.2183 40.2871 42.8115 41.3473 42.8115C42.4074 42.8115 43.4241 43.2183 44.1737 43.9425C44.9233 44.6666 45.3444 45.6487 45.3444 46.6728Z" stroke="#47D4AA" stroke-width="3" stroke-linecap="square"/>
</svg>
