<svg width="48" height="48" viewBox="0 0 48 48" fill="none" xmlns="http://www.w3.org/2000/svg">
<rect width="48" height="48" rx="24" fill="#47D4AA"/>
<path d="M18.1051 16.3283C18.317 15.577 19.1019 15.1236 19.8585 15.316L31.8039 18.3552C32.5606 18.5477 33.0023 19.3128 32.7906 20.0643L29.45 31.929C29.2383 32.6802 28.453 33.133 27.6966 32.9412C26.9399 32.7488 26.4982 31.9837 26.7099 31.2321L29.1251 22.6528L17.2777 29.4929C16.593 29.8882 15.7254 29.6673 15.3399 29.0001C14.9545 28.3326 15.1972 27.4709 15.882 27.0755L27.7295 20.2354L19.0919 18.0374C18.3352 17.845 17.8934 17.0799 18.1051 16.3283Z" fill="white"/>
</svg>
