<svg width="60" height="60" viewBox="0 0 60 60" fill="none" xmlns="http://www.w3.org/2000/svg">
<path d="M4.00488 5.08398L4.00488 56.166" stroke="#47D4AA" stroke-width="3" stroke-linecap="round" stroke-linejoin="round"/>
<path d="M56.0508 5.08398L56.0508 56.166" stroke="#47D4AA" stroke-width="3" stroke-linecap="round" stroke-linejoin="round"/>
<path d="M4.60645 10.498L18.686 10.498" stroke="#47D4AA" stroke-width="3" stroke-linecap="round" stroke-linejoin="round"/>
<path d="M40.3467 10.498L54.4263 10.498" stroke="#47D4AA" stroke-width="3" stroke-linecap="round" stroke-linejoin="round"/>
<path d="M18.9443 17.9753V4H40.1482V17.9753H18.9443Z" stroke="#47D4AA" stroke-width="3" stroke-linecap="round" stroke-linejoin="round"/>
<path d="M29.546 18.0791V28.0951C30.831 27.9344 34.365 28.9096 34.365 32.4322C34.365 33.396 34.365 35.9494 31.6824 37.5739C29.546 38.657 24.6426 38.0976 24.6426 32.7002" stroke="#47D4AA" stroke-width="3" stroke-linecap="round" stroke-linejoin="round"/>
<path d="M11.1045 51.6538C12.5814 56.0127 18.4889 58.1921 23.4118 51.6538C25.5451 54.923 31.1901 59.4998 36.7038 51.6538C38.6729 54.5597 45.0728 59.2819 49.0111 51.6538" stroke="#47D4AA" stroke-width="3" stroke-linecap="round" stroke-linejoin="round"/>
</svg>
